<?xml version="1.0" standalone="no"?>
<!DOCTYPE svg PUBLIC "-//W3C//DTD SVG 20010904//EN"
 "http://www.w3.org/TR/2001/REC-SVG-20010904/DTD/svg10.dtd">
<svg version="1.0" xmlns="http://www.w3.org/2000/svg"
 width="16.000000pt" height="16.000000pt" viewBox="0 0 16.000000 16.000000"
 preserveAspectRatio="xMidYMid meet">
<metadata>
Created by potrace 1.11, written by Peter Selinger 2001-2013
</metadata>
<g transform="translate(0.000000,16.000000) scale(0.002000,-0.002000)"
fill="#000000" stroke="none">
<path d="M3620 6735 c0 -7 -25 -11 -61 -10 -33 0 -63 -3 -65 -6 -2 -3 -27 -7
-56 -8 -69 -4 -123 -8 -123 -11 0 -1 -18 -3 -40 -5 -22 -2 -60 -6 -85 -10 -25
-4 -57 -8 -72 -9 -16 0 -28 -4 -28 -7 0 -3 -16 -5 -35 -4 -19 1 -35 -2 -35 -6
0 -4 -9 -5 -20 -2 -11 3 -20 1 -20 -3 0 -5 -18 -9 -40 -8 -22 0 -40 -3 -40 -7
0 -4 -18 -6 -39 -5 -22 0 -39 -3 -38 -8 1 -5 -18 -11 -43 -13 -68 -6 -70 -6
-70 -13 0 -4 -6 -7 -12 -7 -32 -1 -103 -15 -108 -22 -3 -3 -15 -6 -27 -5 -13
1 -23 -2 -23 -6 0 -5 -8 -7 -17 -5 -10 1 -22 0 -28 -4 -5 -3 -13 -6 -17 -7 -5
-1 -9 -2 -10 -3 -4 -3 -40 -11 -63 -14 -11 -1 -23 -6 -27 -11 -3 -5 -17 -10
-30 -11 -12 -1 -33 -5 -45 -9 -12 -4 -30 -8 -40 -10 -38 -8 -48 -11 -53 -16
-7 -8 -93 -34 -102 -32 -5 1 -8 -2 -8 -8 0 -5 -7 -7 -15 -4 -8 4 -15 1 -15 -6
0 -6 -4 -9 -8 -6 -5 3 -20 -1 -33 -8 -14 -7 -33 -12 -42 -10 -9 1 -17 -2 -17
-7 0 -5 -9 -9 -20 -9 -11 0 -20 -5 -20 -11 0 -5 -4 -8 -8 -5 -4 2 -26 -4 -49
-14 -23 -10 -44 -16 -47 -12 -3 3 -6 0 -6 -6 0 -7 -3 -11 -8 -10 -4 1 -20 -4
-35 -10 -16 -7 -33 -12 -38 -12 -5 0 -9 -5 -9 -11 0 -5 -4 -8 -9 -4 -5 3 -12
1 -16 -5 -4 -6 -11 -8 -16 -5 -5 4 -9 1 -9 -5 0 -6 -4 -9 -9 -6 -4 3 -31 -6
-60 -19 -28 -14 -55 -25 -61 -25 -5 0 -10 -5 -10 -10 0 -6 -3 -9 -7 -8 -5 1
-21 -5 -38 -12 -16 -7 -33 -13 -37 -12 -5 1 -8 -2 -8 -8 0 -5 -4 -10 -10 -10
-10 0 -187 -87 -255 -125 -22 -12 -71 -39 -110 -60 -38 -21 -73 -42 -76 -47
-3 -5 -8 -9 -10 -7 -9 5 -89 -42 -89 -53 0 -6 -3 -9 -6 -5 -4 3 -33 -12 -65
-33 -32 -22 -62 -40 -68 -40 -5 0 -11 -3 -13 -7 -5 -12 -86 -63 -98 -63 -6 0
-9 -4 -6 -9 3 -5 -4 -11 -17 -15 -12 -3 -34 -16 -48 -30 -15 -14 -30 -22 -33
-19 -3 4 -6 -2 -6 -12 0 -10 -3 -16 -6 -12 -4 3 -42 -21 -85 -53 -43 -33 -82
-60 -87 -60 -6 0 -12 -7 -16 -15 -3 -8 -13 -15 -21 -15 -9 0 -13 -4 -10 -10 3
-5 0 -10 -7 -10 -8 0 -32 -18 -53 -40 -21 -22 -43 -40 -47 -40 -5 0 -19 -10
-32 -22 -12 -13 -42 -39 -66 -58 -24 -19 -54 -45 -66 -57 -13 -13 -28 -23 -34
-23 -7 0 -10 -138 -10 -431 0 -409 1 -431 17 -418 32 25 43 37 43 48 0 6 3 11
8 11 4 0 58 50 119 110 62 61 114 110 117 110 2 0 17 12 33 28 52 50 139 125
214 184 19 14 71 56 117 92 45 36 87 66 92 66 6 0 10 5 10 10 0 6 7 10 15 10
8 0 15 5 15 10 0 6 6 10 14 10 8 0 17 7 20 16 3 8 10 12 16 9 5 -3 10 -2 10 4
0 5 17 20 38 32 20 13 39 27 40 31 2 4 10 8 18 8 8 0 14 5 14 10 0 6 5 10 11
10 6 0 25 11 43 25 18 14 38 25 44 25 7 0 12 4 12 8 0 4 19 18 43 30 23 12 63
35 89 51 58 37 127 75 203 115 33 17 63 35 66 39 3 5 12 10 20 11 17 3 92 39
99 47 3 3 17 9 33 13 15 3 27 11 27 16 0 5 7 7 15 4 8 -4 15 -2 15 4 0 9 20
18 59 27 8 2 17 9 21 16 4 6 13 8 19 5 6 -4 11 -3 11 2 0 9 47 27 63 24 4 -1
7 2 7 7 0 5 12 12 28 17 15 4 29 8 32 9 3 1 22 9 44 18 21 9 42 17 47 17 5 0
9 5 9 10 0 6 6 10 13 9 12 -2 59 14 87 29 8 5 25 8 38 7 12 -1 22 2 22 5 0 6
158 62 180 65 3 0 10 3 15 6 6 4 26 10 45 14 19 4 40 10 45 13 6 4 19 7 30 8
23 3 43 8 107 28 25 8 49 12 52 9 3 -4 6 -1 6 5 0 7 3 11 8 10 4 -1 27 2 52 7
25 5 47 9 50 10 3 0 10 3 15 6 6 3 26 5 47 5 20 -1 34 2 31 7 -4 6 16 10 60
10 9 0 17 4 17 9 0 5 6 8 13 6 6 -1 30 2 52 6 22 5 56 10 75 12 19 1 36 3 38
4 1 2 11 4 22 5 11 1 21 3 23 4 2 2 51 9 112 15 22 3 50 7 61 9 12 3 46 7 75
8 30 1 57 7 61 13 5 7 8 5 8 -4 0 -13 1 -13 10 0 7 11 10 11 10 2 0 -7 5 -10
12 -6 6 4 40 8 76 10 40 2 68 8 73 16 5 7 9 8 9 2 0 -14 110 -13 110 1 0 7 3
7 8 0 9 -12 72 -15 72 -3 0 5 9 4 20 -2 11 -6 20 -7 20 -3 0 9 163 9 178 -1 6
-3 14 -2 17 4 5 8 11 8 20 0 9 -8 15 -8 20 0 3 6 12 7 18 3 20 -12 37 -12 37
0 0 8 3 8 8 2 4 -6 30 -11 57 -12 103 -2 202 -10 213 -17 6 -3 13 -2 17 4 4 6
12 7 18 3 7 -5 23 -9 37 -9 14 -1 46 -3 73 -5 26 -1 47 -5 47 -9 0 -4 15 -7
33 -7 17 0 52 -3 77 -7 25 -4 59 -9 75 -11 17 -2 43 -6 59 -9 67 -12 121 -20
129 -18 4 1 7 -2 7 -7 0 -4 15 -8 33 -8 18 1 41 -3 52 -8 20 -9 25 -10 80 -18
17 -3 48 -10 70 -16 22 -6 43 -11 47 -11 4 -1 22 -6 40 -12 18 -5 42 -11 53
-13 11 -2 20 -4 20 -5 0 -1 7 -3 15 -5 8 -1 41 -10 72 -20 32 -9 59 -15 61
-13 2 2 11 -3 20 -11 10 -7 17 -10 17 -6 0 4 7 2 15 -5 8 -7 15 -9 15 -5 0 4
7 2 15 -5 9 -7 18 -10 22 -7 3 4 15 1 27 -5 11 -7 30 -13 41 -15 11 -2 24 -8
29 -13 6 -6 20 -10 32 -10 13 0 26 -5 29 -11 4 -6 13 -8 21 -5 8 3 17 -1 20
-9 4 -8 10 -12 15 -9 6 3 16 0 24 -6 8 -7 15 -10 15 -7 0 3 12 0 27 -8 15 -8
30 -12 35 -9 4 3 8 1 8 -4 0 -5 10 -13 23 -17 12 -4 25 -8 30 -10 4 -1 12 -3
18 -4 5 0 7 -5 4 -11 -3 -6 1 -7 10 -4 8 4 22 1 30 -6 8 -7 15 -9 15 -4 0 4 5
3 12 -4 7 -7 20 -12 30 -12 10 0 18 -4 18 -9 0 -8 37 -24 53 -22 4 1 7 -3 7
-9 0 -6 3 -9 8 -8 10 3 86 -34 94 -46 4 -6 8 -7 8 -3 0 6 132 -55 180 -83 8
-5 31 -17 50 -27 19 -9 37 -19 40 -22 5 -6 81 -48 117 -65 13 -6 23 -14 23
-18 0 -5 7 -8 15 -8 8 0 15 -3 15 -8 0 -4 20 -16 45 -27 25 -11 45 -23 45 -28
0 -4 16 -15 35 -24 19 -9 35 -20 35 -25 0 -4 7 -8 15 -8 8 0 15 -5 15 -11 0
-5 4 -8 9 -5 5 3 21 -6 35 -19 15 -14 30 -25 35 -25 4 0 16 -8 27 -17 10 -10
31 -24 46 -32 15 -8 26 -17 23 -20 -2 -4 9 -12 24 -19 15 -7 37 -21 49 -32 12
-11 25 -20 29 -20 5 0 16 -8 25 -17 9 -10 23 -23 30 -28 12 -9 88 -69 113 -88
25 -19 63 -51 92 -78 18 -16 37 -29 43 -29 6 0 8 -4 5 -10 -3 -5 -1 -10 5 -10
13 0 44 -28 243 -222 83 -82 153 -148 154 -148 2 0 3 190 3 423 l0 423 -57 49
c-31 28 -58 49 -59 48 -2 -1 -24 18 -51 42 -96 89 -114 104 -121 106 -8 3 -25
17 -53 42 -10 9 -19 15 -19 12 0 -3 -8 2 -17 10 -10 8 -56 42 -103 77 -47 34
-88 67 -92 73 -5 6 -8 6 -8 0 0 -5 -5 -2 -11 8 -5 9 -17 17 -24 17 -8 0 -15 4
-15 9 0 5 -13 14 -30 21 -16 7 -30 16 -30 21 0 5 -7 9 -15 9 -8 0 -15 5 -15
10 0 6 -4 10 -9 10 -15 0 -141 83 -141 92 0 5 -4 6 -10 3 -5 -3 -10 -1 -10 4
0 6 -3 10 -7 9 -5 -1 -27 10 -50 25 -24 15 -47 27 -52 27 -5 0 -14 7 -21 15
-7 8 -16 13 -20 10 -5 -3 -11 -1 -15 5 -3 6 -23 18 -43 28 -50 24 -83 44 -104
61 -10 8 -18 11 -18 7 0 -4 -12 1 -27 12 -35 24 -116 62 -131 62 -7 0 -12 4
-12 9 0 5 -13 12 -30 16 -16 4 -30 11 -30 16 0 5 -3 8 -7 7 -5 -1 -39 12 -76
30 -89 43 -300 127 -309 124 -5 -1 -8 2 -8 8 0 5 -7 10 -15 10 -8 0 -23 4 -33
10 -22 12 -203 73 -219 73 -7 0 -13 5 -13 10 0 6 -3 8 -6 4 -4 -3 -19 0 -35 9
-16 8 -32 14 -36 14 -5 0 -21 4 -38 9 -16 5 -50 14 -75 22 -25 7 -49 15 -55
19 -5 3 -20 5 -32 4 -13 0 -23 3 -23 8 0 5 -6 8 -12 5 -7 -2 -27 2 -44 9 -17
7 -35 10 -38 6 -4 -3 -10 -1 -14 5 -4 6 -23 13 -42 16 -39 7 -75 15 -75 17 0
1 -18 4 -40 6 -21 3 -44 9 -50 13 -5 4 -23 7 -40 7 -16 -1 -32 2 -35 6 -3 4
-22 8 -43 10 -20 1 -37 5 -37 8 0 3 -10 7 -22 8 -13 1 -41 4 -63 8 -22 3 -56
7 -75 8 -19 2 -35 5 -35 6 0 1 -12 3 -28 4 -15 2 -30 6 -33 9 -4 4 -16 2 -27
-4 -14 -8 -18 -8 -13 0 5 7 -3 11 -21 12 -15 1 -39 3 -53 5 -28 3 -161 15
-200 17 -14 1 -28 7 -32 12 -5 6 -8 5 -8 -3 0 -8 -5 -10 -12 -5 -18 11 -81 13
-418 17 -185 3 -302 0 -314 -6 -11 -6 -16 -6 -13 0 4 5 -10 9 -33 8 -22 -1
-40 -5 -40 -11 0 -5 -5 -3 -10 5 -9 13 -10 13 -10 0 0 -13 -1 -13 -10 0 -5 8
-10 10 -10 5z"/>
<path d="M3696 5483 c-4 -5 -33 -9 -64 -10 -31 -1 -57 -2 -57 -3 0 -4 -73 -11
-127 -13 -32 -1 -58 -4 -58 -7 0 -3 -15 -6 -32 -7 -18 0 -51 -4 -73 -8 -22 -5
-53 -9 -70 -10 -16 -1 -30 -3 -30 -5 0 -2 -43 -9 -90 -13 -17 -2 -36 -6 -43
-11 -6 -4 -16 -4 -22 -1 -5 3 -10 2 -10 -4 0 -5 -9 -8 -20 -6 -11 2 -20 1 -20
-3 0 -4 -10 -8 -22 -8 -13 -1 -32 -4 -43 -7 -11 -3 -30 -6 -43 -6 -13 -1 -21
-4 -19 -8 3 -5 -9 -9 -26 -9 -36 -2 -59 -7 -99 -23 -16 -6 -28 -8 -28 -5 0 4
-7 1 -15 -6 -8 -7 -15 -10 -15 -7 0 3 -27 -3 -60 -13 -33 -10 -60 -16 -60 -13
0 3 -7 0 -15 -7 -8 -7 -15 -9 -15 -5 0 4 -6 3 -12 -3 -14 -10 -78 -27 -91 -24
-5 2 -6 -2 -2 -8 3 -6 -4 -10 -18 -10 -13 0 -27 -3 -31 -7 -4 -5 -11 -8 -14
-9 -21 -2 -69 -18 -78 -26 -6 -4 -20 -5 -29 -1 -12 4 -16 3 -12 -4 6 -9 -17
-20 -53 -27 -3 -1 -12 -6 -20 -11 -8 -5 -19 -10 -25 -10 -5 -1 -23 -7 -40 -15
-16 -7 -32 -14 -35 -15 -3 -1 -18 -7 -33 -13 -16 -7 -33 -12 -38 -12 -5 0 -9
-5 -9 -10 0 -6 -3 -9 -7 -8 -5 1 -25 -6 -47 -15 -21 -9 -42 -17 -47 -17 -5 0
-9 -4 -9 -10 0 -5 -7 -10 -15 -10 -8 0 -15 -5 -15 -11 0 -5 -4 -8 -9 -4 -6 3
-26 -4 -45 -15 -20 -11 -36 -16 -36 -12 0 4 -4 2 -8 -3 -4 -6 -32 -23 -62 -39
-30 -16 -58 -34 -62 -40 -4 -6 -8 -8 -8 -3 0 4 -17 -3 -37 -16 -21 -13 -48
-27 -60 -31 -13 -4 -23 -12 -23 -17 0 -5 -5 -9 -11 -9 -9 0 -71 -38 -229 -138
-30 -20 -57 -38 -60 -41 -3 -3 -32 -24 -65 -46 -33 -22 -69 -48 -80 -57 -11
-10 -23 -17 -27 -18 -5 0 -16 -8 -26 -17 -41 -40 -82 -73 -90 -73 -5 0 -18
-10 -29 -22 -11 -13 -34 -33 -49 -45 -30 -22 -43 -33 -133 -111 -65 -56 -395
-382 -387 -382 3 0 -11 -17 -32 -38 -33 -34 -122 -137 -147 -170 -5 -7 -18
-22 -27 -33 -10 -10 -18 -21 -18 -24 0 -5 -33 -46 -60 -73 -21 -22 -19 -33 12
-67 15 -16 28 -34 28 -38 0 -4 11 -18 25 -31 14 -13 25 -28 25 -34 0 -6 3 -12
8 -14 4 -1 32 -32 62 -68 30 -36 68 -80 85 -98 16 -18 39 -43 50 -55 67 -77
145 -154 150 -149 3 3 5 0 5 -6 0 -11 21 -32 125 -128 96 -89 120 -110 185
-164 36 -30 66 -58 68 -62 2 -5 8 -8 14 -8 6 0 18 -8 27 -18 9 -9 34 -30 56
-47 22 -16 48 -38 58 -49 9 -10 17 -16 17 -12 0 4 13 -3 29 -16 16 -12 46 -34
66 -48 20 -14 56 -40 80 -57 24 -18 49 -33 54 -33 6 0 11 -4 11 -10 0 -5 6
-10 14 -10 8 0 16 -4 18 -9 2 -5 9 -11 17 -13 15 -3 41 -21 67 -46 7 -7 16
-12 20 -11 3 1 18 -7 32 -17 14 -10 28 -19 31 -19 3 0 20 -9 36 -20 17 -11 48
-29 70 -40 22 -11 51 -27 64 -37 13 -10 27 -15 32 -12 5 3 9 1 9 -4 0 -4 24
-19 53 -32 28 -13 55 -28 59 -34 4 -6 10 -7 14 -4 3 4 13 1 21 -7 8 -8 23 -15
34 -15 10 0 19 -4 19 -8 0 -7 39 -27 90 -47 3 -1 19 -8 35 -15 17 -7 33 -13
38 -12 4 1 7 -2 7 -6 0 -5 6 -9 13 -9 6 0 30 -8 52 -18 22 -10 42 -19 45 -20
19 -7 53 -20 103 -41 31 -13 57 -21 57 -17 0 3 7 0 15 -7 8 -7 15 -9 15 -5 0
4 6 3 13 -2 6 -6 24 -13 39 -17 15 -3 40 -11 55 -18 15 -6 30 -12 33 -13 18
-5 97 -28 105 -30 6 -1 17 -4 25 -8 8 -3 38 -11 65 -18 28 -6 55 -16 61 -20 6
-5 13 -7 16 -4 3 3 22 -1 44 -8 21 -8 45 -12 52 -10 6 3 12 1 12 -4 0 -6 10
-9 23 -8 12 1 27 -1 32 -4 6 -4 24 -8 40 -10 17 -2 37 -6 45 -10 8 -4 27 -7
42 -6 16 0 30 -5 33 -14 4 -11 8 -12 13 -4 5 8 17 8 45 -2 27 -9 37 -9 37 -1
0 7 3 7 8 1 4 -5 16 -11 27 -12 11 0 38 -4 60 -8 22 -3 61 -8 86 -9 26 -2 51
-6 56 -9 6 -4 45 -8 87 -9 42 -2 76 -5 76 -8 0 -3 27 -5 60 -5 33 0 60 -2 60
-5 0 -3 128 -6 285 -7 157 0 282 4 279 8 -3 5 6 5 20 -1 17 -6 26 -6 30 3 3 9
5 8 5 -1 1 -7 6 -10 12 -6 6 3 37 8 68 11 78 5 126 10 126 12 0 1 29 4 65 6
36 3 76 7 90 9 14 3 43 8 65 12 22 4 51 8 65 9 14 2 25 4 25 5 0 1 12 3 26 4
14 2 31 6 37 10 6 3 14 1 18 -5 5 -8 8 -8 13 0 4 6 23 13 42 15 18 3 34 5 34
6 0 1 10 3 23 6 12 2 32 6 45 8 12 3 22 5 22 6 0 1 16 4 35 7 19 2 37 9 38 14
2 5 8 7 13 4 5 -3 28 0 51 6 24 7 48 13 53 15 6 1 37 10 70 20 33 10 68 18 78
17 9 0 17 4 17 9 0 5 3 7 8 5 4 -3 18 0 32 6 29 12 50 18 68 19 6 1 12 5 12
10 0 4 3 7 8 6 13 -3 66 14 81 26 8 6 16 10 17 9 8 -5 64 10 64 17 0 3 6 7 13
7 22 1 41 8 55 21 8 7 17 10 22 7 5 -3 11 -1 15 5 3 5 15 10 26 10 10 0 19 4
19 8 0 4 10 8 22 9 11 1 25 8 29 15 5 7 9 10 9 6 0 -7 53 16 223 96 42 20 82
36 87 36 6 0 10 5 10 11 0 6 7 9 15 5 8 -3 15 -2 15 3 0 4 33 25 73 46 39 21
75 42 78 47 3 5 8 9 10 8 11 -4 80 33 107 58 7 6 20 12 28 12 8 0 12 5 9 10
-3 5 -1 10 6 10 23 0 249 148 249 163 0 6 3 8 6 4 4 -3 23 6 43 21 20 15 40
30 46 34 15 11 257 201 278 218 10 8 50 44 89 80 39 36 75 64 79 63 5 -2 9 4
9 12 0 8 4 15 8 15 10 0 217 208 284 284 24 28 53 59 65 69 12 11 20 24 17 29
-3 4 1 8 8 9 7 0 51 50 98 110 47 61 93 119 103 129 16 19 17 21 1 45 -9 14
-20 25 -25 25 -5 0 -9 6 -9 13 0 6 -13 26 -28 42 -15 17 -43 50 -62 75 -19 25
-44 55 -55 67 -11 12 -40 45 -65 74 -95 110 -433 440 -530 516 -19 15 -37 30
-40 33 -21 22 -101 80 -109 80 -6 0 -11 6 -11 13 0 6 -19 23 -42 37 -22 14
-46 30 -52 35 -6 6 -33 26 -61 45 -27 19 -56 40 -63 47 -7 7 -16 13 -20 13 -4
0 -20 11 -36 25 -16 14 -35 25 -43 25 -7 0 -13 5 -13 10 0 6 -7 10 -15 10 -8
0 -23 9 -32 20 -10 11 -25 20 -34 20 -10 0 -19 4 -21 8 -4 11 -100 72 -160
102 -27 13 -48 27 -48 32 0 4 -3 7 -7 6 -5 -1 -19 4 -33 12 -14 8 -31 15 -38
16 -7 1 -20 8 -28 14 -20 17 -216 113 -231 113 -7 0 -13 4 -13 9 0 4 -9 8 -21
8 -11 0 -18 4 -15 9 5 8 -48 26 -66 22 -5 0 -8 3 -8 9 0 6 -3 9 -7 8 -9 -1
-31 6 -90 33 -23 10 -60 24 -82 31 -23 7 -41 16 -41 20 0 5 -10 8 -23 8 -13 0
-27 3 -31 7 -3 4 -14 8 -22 9 -9 1 -23 6 -32 10 -9 4 -19 8 -22 9 -19 4 -87
29 -95 33 -5 3 -16 7 -25 8 -31 5 -145 38 -150 43 -3 3 -18 7 -35 8 -16 1 -31
6 -33 11 -1 5 -14 7 -27 4 -14 -2 -25 0 -25 5 0 5 -8 9 -17 10 -10 1 -29 4
-43 7 -14 3 -38 8 -55 11 -84 16 -110 22 -110 25 0 4 -106 21 -142 23 -18 1
-33 4 -33 7 0 3 -19 6 -42 8 -41 2 -83 8 -83 12 0 2 -34 6 -114 13 -35 3 -66
8 -69 11 -3 3 -11 1 -19 -5 -10 -9 -13 -8 -13 1 0 6 -12 11 -27 10 -16 -1 -30
-1 -33 0 -3 1 -28 2 -57 4 -29 1 -55 5 -59 9 -4 4 -13 2 -21 -4 -9 -8 -13 -8
-13 0 0 7 -8 8 -24 1 -13 -5 -27 -6 -31 -2 -9 9 -347 10 -366 1 -9 -5 -21 -3
-27 3 -9 9 -12 9 -12 -1 0 -7 -5 -9 -12 -5 -18 11 -48 12 -48 2 0 -10 -23 -6
-31 5 -3 4 -9 4 -13 0z m1060 -667 c18 -18 33 -20 66 -7 22 8 25 5 50 -66 l25
-75 -34 -14 c-18 -8 -31 -19 -28 -24 4 -6 15 -41 25 -78 10 -37 21 -74 25 -83
4 -11 -9 -20 -58 -38 -45 -15 -64 -27 -63 -38 1 -11 -14 -20 -44 -29 -25 -7
-97 -31 -160 -54 -63 -23 -150 -54 -192 -68 -72 -24 -78 -29 -103 -74 -38 -70
-41 -128 -12 -214 l25 -72 -44 -55 c-66 -84 -154 -130 -276 -143 -34 -4 -70
-8 -78 -10 -8 -1 -18 -3 -22 -3 -4 -1 -14 -8 -23 -17 -14 -15 -16 -34 -10
-150 8 -161 38 -295 89 -387 20 -36 36 -72 36 -80 0 -19 -115 -64 -210 -82
-49 -10 -140 -40 -173 -58 -38 -21 -38 -21 -74 -2 -29 16 -44 36 -74 100 -54
112 -56 133 -63 465 -4 208 -12 248 -59 298 -34 37 -57 46 -126 48 -81 3 -94
19 -40 52 42 25 41 20 44 152 1 41 7 93 15 115 39 120 52 146 82 161 19 10 28
21 24 30 -7 19 20 30 38 15 10 -8 58 5 197 55 272 97 262 94 274 84 11 -9 96
13 160 40 33 14 181 66 345 121 85 28 162 57 170 63 15 12 93 40 143 50 15 4
27 13 27 21 0 8 5 15 10 15 6 0 9 3 9 8 -1 4 -1 18 0 31 1 21 4 23 36 18 19
-3 42 -13 51 -21z m-2031 -42 c-8 -19 -23 -47 -33 -62 -10 -15 -27 -45 -37
-67 -11 -22 -24 -43 -30 -47 -5 -4 -6 -10 -2 -14 4 -4 1 -14 -7 -23 -8 -9 -15
-19 -15 -24 -2 -23 -14 -57 -21 -57 -5 0 -6 -9 -3 -20 3 -11 0 -20 -6 -20 -6
0 -10 -3 -9 -7 2 -11 -14 -86 -21 -98 -5 -9 -9 -35 -14 -92 -1 -13 -4 -23 -7
-23 -7 0 -8 -8 -14 -153 -3 -59 -8 -112 -11 -117 -3 -6 -2 -10 2 -10 10 0 10
-47 0 -57 -4 -3 -3 -11 3 -18 5 -6 11 -37 12 -68 2 -31 6 -57 9 -57 3 0 6 -19
7 -42 1 -23 6 -44 10 -47 4 -3 8 -17 7 -31 0 -14 3 -27 7 -30 4 -3 10 -21 13
-40 3 -19 10 -39 15 -46 6 -6 11 -23 12 -38 1 -14 6 -26 10 -26 4 0 8 -9 8
-21 0 -11 7 -27 15 -36 9 -8 19 -28 22 -44 3 -16 8 -29 12 -29 3 0 17 -24 31
-52 14 -29 32 -61 40 -71 8 -10 15 -21 15 -25 0 -4 6 -15 15 -25 35 -42 46
-57 65 -84 26 -36 111 -128 154 -167 19 -17 45 -41 57 -53 13 -13 27 -23 33
-23 5 0 11 -4 13 -9 4 -11 171 -121 223 -146 22 -11 43 -24 47 -30 4 -5 10 -6
14 -3 3 4 13 0 21 -8 8 -8 19 -12 24 -9 5 4 9 1 9 -4 0 -6 8 -11 18 -11 10 0
22 -3 26 -7 3 -4 12 -8 19 -9 7 -2 31 -10 54 -18 23 -9 60 -19 83 -22 22 -4
40 -10 40 -14 0 -4 16 -7 35 -6 19 1 35 -1 35 -5 0 -3 6 -6 13 -6 6 -1 39 -5
72 -9 116 -14 339 -9 445 12 72 13 86 16 100 19 8 2 16 4 18 5 1 2 5 3 10 4 4
1 13 5 20 10 7 4 16 6 18 3 3 -3 33 6 67 20 34 13 69 26 78 28 20 4 62 27 70
38 3 5 9 8 13 8 15 -3 56 12 56 19 0 9 40 25 53 22 5 -1 6 2 3 7 -3 5 8 14 24
21 17 7 30 17 30 22 0 5 4 7 8 4 5 -3 20 6 35 20 14 13 30 24 35 24 6 0 13 7
16 16 4 9 9 14 12 11 3 -3 24 13 47 35 23 22 51 48 62 57 43 36 165 176 165
190 0 5 4 11 8 13 10 4 57 70 57 80 0 4 7 16 16 26 9 11 31 50 50 88 18 38 37
72 42 75 5 3 8 9 8 13 -1 8 7 30 31 92 11 29 21 60 23 70 2 11 4 20 5 22 3 2
2 1 15 57 4 22 8 43 7 48 -1 4 1 7 6 7 4 0 8 12 9 28 3 54 10 109 15 118 3 5
4 79 2 164 -4 196 -7 240 -16 240 -4 0 -7 8 -7 18 1 36 -9 89 -19 109 -6 11
-9 23 -6 26 3 3 2 12 -2 19 -5 7 -9 15 -9 18 -4 22 -30 97 -37 105 -4 5 -8 17
-8 27 0 10 -4 18 -9 18 -6 0 -8 10 -6 21 3 12 2 19 -2 15 -3 -3 -17 16 -30 44
-13 27 -28 52 -33 55 -6 3 -10 15 -10 26 0 10 -4 19 -8 19 -7 0 -32 42 -32 54
0 2 17 -2 38 -10 20 -7 45 -13 55 -14 9 0 17 -5 17 -11 0 -5 5 -7 10 -4 6 3
16 3 23 -2 6 -4 23 -9 37 -11 14 -2 27 -7 28 -13 2 -5 11 -9 20 -9 10 0 28 -6
43 -13 14 -8 33 -13 42 -11 9 1 17 -2 17 -7 0 -5 5 -9 10 -9 6 0 27 -7 48 -16
40 -18 60 -25 80 -26 6 -1 12 -8 12 -15 0 -8 4 -12 9 -8 11 6 62 -15 73 -30 4
-5 8 -6 8 -2 0 4 10 2 23 -5 12 -7 24 -13 27 -13 3 0 21 -9 40 -20 19 -11 37
-20 40 -20 24 -4 50 -18 50 -27 0 -5 7 -8 15 -4 8 3 15 1 15 -4 0 -6 5 -10 11
-10 6 0 23 -9 39 -20 15 -11 30 -17 34 -13 3 3 6 1 6 -5 0 -7 3 -11 8 -10 16
4 61 -26 55 -36 -3 -6 -3 -8 2 -4 7 7 82 -27 95 -43 3 -3 20 -14 39 -23 18
-10 55 -33 81 -52 26 -18 50 -31 53 -27 4 3 7 2 7 -3 0 -6 36 -34 80 -63 44
-30 80 -58 80 -63 0 -5 4 -6 10 -3 6 3 10 1 10 -4 0 -6 5 -11 11 -11 6 0 16
-6 24 -12 25 -24 55 -48 61 -48 3 0 11 -6 18 -12 25 -25 71 -64 92 -78 25 -18
155 -132 203 -177 18 -18 37 -33 42 -33 5 0 9 -6 10 -12 0 -7 25 -33 54 -58
29 -25 54 -51 54 -57 1 -7 8 -13 16 -13 8 0 15 -4 15 -10 0 -5 12 -22 28 -38
15 -15 38 -39 51 -54 l23 -27 -46 -47 c-25 -27 -46 -52 -46 -57 0 -4 -4 -5
-10 -2 -5 3 -10 2 -10 -3 0 -13 -103 -117 -112 -114 -5 1 -8 -4 -8 -12 0 -8
-9 -18 -20 -21 -11 -4 -18 -11 -15 -16 4 -5 2 -9 -3 -9 -5 0 -30 -21 -55 -46
-26 -25 -47 -43 -47 -40 0 3 -12 -7 -27 -22 -16 -16 -68 -62 -118 -102 -49
-40 -93 -78 -97 -84 -5 -6 -8 -7 -8 -1 0 7 -3 7 -8 0 -4 -6 -25 -23 -47 -40
-22 -16 -42 -31 -45 -34 -9 -10 -45 -31 -62 -37 -10 -4 -18 -10 -18 -14 0 -10
-177 -124 -320 -205 -36 -21 -67 -40 -70 -44 -5 -7 -28 -13 -48 -14 -6 0 -10
-3 -7 -5 8 -8 -34 -34 -45 -27 -6 3 -10 1 -10 -4 0 -6 -7 -11 -15 -11 -8 0
-15 -5 -15 -11 0 -5 -4 -8 -9 -5 -5 3 -14 -1 -21 -9 -7 -8 -16 -12 -21 -9 -5
3 -9 0 -9 -6 0 -6 -4 -9 -9 -5 -5 3 -16 -2 -25 -10 -8 -9 -19 -16 -23 -16 -20
0 -53 -12 -53 -19 0 -5 -13 -11 -30 -15 -16 -4 -32 -11 -35 -16 -4 -5 -15 -9
-26 -9 -10 0 -19 -5 -19 -11 0 -5 -4 -8 -9 -4 -5 3 -12 1 -16 -5 -4 -6 -10 -8
-15 -5 -5 3 -11 1 -15 -5 -4 -6 -10 -8 -15 -5 -5 3 -11 1 -15 -5 -4 -6 -11 -8
-16 -5 -5 4 -9 2 -9 -3 0 -10 -48 -27 -64 -23 -5 1 -12 -3 -16 -9 -4 -6 -16
-13 -26 -15 -10 -2 -20 -4 -21 -4 -2 -1 -5 -1 -8 -1 -3 0 -19 -7 -35 -15 -17
-9 -30 -13 -30 -10 0 3 -17 -2 -37 -11 -21 -9 -45 -17 -53 -19 -8 -2 -15 -4
-15 -5 0 -1 -8 -3 -18 -5 -10 -2 -26 -7 -35 -11 -9 -4 -26 -9 -37 -10 -11 -2
-31 -7 -45 -11 -14 -3 -28 -6 -32 -5 -5 1 -8 -3 -8 -10 0 -6 -3 -9 -6 -6 -3 3
-29 0 -57 -8 -54 -15 -113 -26 -134 -27 -7 0 -13 -3 -13 -6 0 -3 -10 -7 -22
-7 -13 -1 -39 -5 -58 -9 -19 -4 -43 -8 -52 -8 -10 -1 -18 -4 -18 -7 0 -3 -17
-6 -38 -7 -20 -1 -50 -4 -67 -8 -32 -7 -74 -12 -164 -20 -30 -3 -61 -11 -69
-18 -9 -6 -13 -7 -9 -1 4 7 -4 11 -23 10 -17 -1 -30 -3 -30 -6 0 -8 -113 -12
-385 -12 -299 1 -395 4 -395 14 0 4 -11 3 -24 -2 -13 -4 -27 -5 -32 0 -5 5
-34 10 -64 11 -30 1 -59 4 -64 7 -5 3 -32 7 -60 9 -28 2 -53 7 -56 11 -3 4
-26 7 -52 7 -27 0 -48 3 -48 7 0 4 -6 5 -14 2 -8 -3 -17 0 -21 5 -3 6 -11 9
-16 5 -6 -3 -18 -2 -27 2 -9 4 -28 8 -42 9 -14 1 -26 3 -27 4 -2 0 -4 1 -5 1
-2 1 -21 5 -43 11 -22 5 -55 12 -73 14 -18 2 -38 7 -45 12 -14 8 -30 12 -69
17 -15 2 -33 7 -40 13 -7 5 -20 9 -28 8 -8 0 -17 2 -20 6 -3 4 -18 9 -35 10
-16 2 -33 8 -36 12 -3 5 -21 11 -40 14 -19 3 -37 10 -40 15 -4 6 -12 7 -19 3
-7 -4 -15 -3 -19 3 -4 7 -16 13 -26 15 -11 2 -28 7 -38 10 -9 4 -25 10 -35 14
-9 3 -23 5 -29 4 -7 -1 -13 3 -13 9 0 5 -9 10 -20 10 -11 0 -20 5 -20 11 0 5
-4 8 -9 5 -4 -3 -25 4 -47 14 -21 11 -41 20 -45 20 -4 0 -20 5 -36 11 -15 6
-30 10 -33 10 -3 0 -12 7 -21 15 -9 8 -19 11 -22 7 -4 -3 -7 -1 -7 5 0 7 -9
12 -19 12 -11 0 -27 7 -35 16 -9 8 -16 13 -16 11 0 -3 -26 8 -57 24 -31 16
-63 29 -70 29 -7 0 -13 3 -13 8 0 4 -25 18 -55 32 -30 14 -55 28 -55 33 0 4
-6 7 -12 7 -7 0 -24 9 -38 20 -14 11 -31 20 -38 20 -7 0 -22 9 -34 20 -12 11
-28 20 -35 20 -7 0 -13 5 -13 10 0 6 -6 10 -13 10 -7 0 -23 9 -35 20 -12 12
-22 18 -22 15 0 -6 -95 55 -121 78 -8 7 -23 16 -32 20 -9 3 -17 11 -17 17 0 6
-4 8 -10 5 -5 -3 -10 -1 -10 4 0 6 -6 11 -14 11 -8 0 -16 7 -20 15 -3 8 -12
15 -20 15 -8 0 -16 3 -18 8 -1 4 -36 32 -76 62 -39 30 -72 58 -72 62 0 5 -6 8
-13 8 -7 0 -19 8 -28 18 -8 9 -37 35 -63 57 -27 22 -72 63 -102 91 -30 28 -54
50 -54 49 0 -5 -153 149 -213 214 -64 70 -65 62 8 138 22 23 57 60 78 82 20
22 37 38 37 35 0 -2 6 1 14 8 8 7 12 16 10 20 -2 3 0 8 5 10 5 1 49 39 97 83
112 103 126 115 164 145 18 14 37 30 44 36 12 12 137 108 180 139 15 11 40 30
54 42 15 13 32 23 38 23 7 0 15 7 18 16 3 8 10 13 15 10 5 -4 11 -3 13 1 5 12
95 73 106 73 6 0 12 3 14 8 4 10 85 62 96 62 5 0 22 11 37 24 16 14 32 23 37
20 4 -3 8 0 8 6 0 6 4 9 9 6 5 -4 11 -3 13 1 1 5 21 17 43 28 22 11 42 22 45
25 8 9 329 164 342 164 3 1 10 4 14 9 4 4 16 7 26 7 10 0 18 5 18 11 0 5 4 8
9 4 5 -3 12 -1 16 5 4 6 11 8 16 5 5 -4 9 -1 9 4 0 6 3 10 8 9 5 -2 107 33
202 69 8 4 19 5 23 4 4 0 18 4 30 11 12 7 26 11 31 10 4 -2 14 3 22 9 8 6 14
8 14 4 0 -4 7 -2 15 5 8 7 15 9 15 6 0 -4 8 -2 18 3 9 6 18 11 20 11 1 0 -4
-16 -13 -36z"/>
<path d="M4037 4068 c-66 -14 -77 -24 -77 -71 0 -55 29 -101 80 -127 43 -22
50 -35 23 -42 -34 -9 -82 12 -109 47 -14 19 -32 35 -40 35 -7 0 -17 15 -22 33
-5 18 -15 31 -22 29 -7 -2 -20 4 -30 13 -16 15 -19 14 -39 -11 -11 -15 -21
-35 -22 -45 -1 -11 -2 -27 -2 -37 -2 -25 48 -125 74 -148 17 -15 36 -19 93
-18 122 1 190 33 251 117 30 42 33 62 16 123 -23 84 -87 122 -174 102z"/>
</g>
</svg>
